<?xml version="1.0" standalone="no"?>
<!DOCTYPE svg PUBLIC "-//W3C//DTD SVG 20010904//EN"
 "http://www.w3.org/TR/2001/REC-SVG-20010904/DTD/svg10.dtd">
<svg version="1.0" xmlns="http://www.w3.org/2000/svg"
 width="1366.000000pt" height="768.000000pt" viewBox="0 0 1366.000000 768.000000"
 preserveAspectRatio="xMidYMid meet">

<g transform="translate(0.000000,768.000000) scale(0.100000,-0.100000)"
fill="#000000" stroke="none">
<path d="M3069 7592 c-176 -203 -424 -367 -689 -455 -217 -73 -382 -91 -657
-75 -430 25 -733 -46 -1018 -237 -124 -84 -197 -155 -307 -303 -106 -144 -258
-303 -345 -362 l-52 -35 -1 -3062 0 -3063 5619 0 5618 0 28 43 c134 204 376
407 635 531 130 63 185 81 390 130 308 73 561 208 756 401 154 154 233 282
310 507 67 196 146 345 252 477 l52 64 0 2764 0 2763 -5257 -1 -5258 0 -76
-87z"/>
</g>
</svg>
